<?xml version="1.0" encoding="UTF-8"?>
<svg width="1200pt" height="1200pt" version="1.1" viewBox="0 0 1200 1200" xmlns="http://www.w3.org/2000/svg">
 <path d="m1125 75v1050c0 20.719-16.781 37.5-37.5 37.5s-37.5-16.781-37.5-37.5v-1050c0-20.719 16.781-37.5 37.5-37.5s37.5 16.781 37.5 37.5zm-435.24 261.71c-14.625-14.625-38.391-14.625-53.016 0s-14.625 38.391 0 53.016l172.74 172.78h-696.98c-20.719 0-37.5 16.781-37.5 37.5s16.781 37.5 37.5 37.5h696.98l-172.74 172.74c-14.625 14.625-14.625 38.391 0 53.016 7.3125 7.3125 16.922 10.969 26.531 10.969s19.172-3.6562 26.531-10.969l236.76-236.76c14.625-14.625 14.625-38.391 0-53.016l-236.76-236.76z"/>
</svg>
